# xmcd CD database file
#
# Track frame offsets:
#	150
#	21150
#	44258
#	64095
#
# Disc length: 1289 seconds
#
# Revision: 0
# Processed by: cddbd v1.5.1PL0 Copyright (c) Steve Scherf et al.
# Submitted via: CDex 1.51
#
DISCID=2d050704
DTITLE=Shrieker - Passion Road
DYEAR=1900
DGENRE=Hard Rock
TTITLE0=Stay With Me
TTITLE1=Dirty Doll
TTITLE2=Too Shine Girl
TTITLE3=四月の空の下で･･･
EXTD=
EXTT0=
EXTT1=
EXTT2=
EXTT3=
PLAYORDER=
